<?xml version="1.0" standalone="no"?>
<!DOCTYPE svg PUBLIC "-//W3C//DTD SVG 20010904//EN"
 "http://www.w3.org/TR/2001/REC-SVG-20010904/DTD/svg10.dtd">
<svg version="1.0" xmlns="http://www.w3.org/2000/svg"
 width="1024.000000pt" height="1024.000000pt" viewBox="0 0 1024.000000 1024.000000"
 preserveAspectRatio="xMidYMid meet">

<g transform="translate(0.000000,1024.000000) scale(0.100000,-0.100000)"
fill="#000000" stroke="none">
<path d="M5054 8362 c-40 -32 -44 -54 -44 -247 0 -118 4 -194 11 -208 20 -39
51 -57 99 -57 48 0 79 18 99 57 7 14 11 90 11 208 0 118 -4 194 -11 208 -20
39 -51 57 -99 57 -28 0 -53 -7 -66 -18z"/>
<path d="M3819 7841 c-24 -24 -29 -38 -29 -77 0 -47 0 -48 128 -176 129 -132
163 -158 204 -158 35 0 83 34 97 69 26 62 11 87 -137 234 l-139 137 -47 0
c-39 0 -53 -5 -77 -29z"/>
<path d="M6168 7732 c-124 -123 -140 -142 -144 -177 -7 -55 22 -100 75 -116
31 -9 46 -9 69 0 16 7 88 72 161 145 121 123 131 136 131 170 0 73 -40 115
-109 116 -44 0 -47 -2 -183 -138z"/>
<path d="M5069 7365 c-31 -17 -49 -61 -49 -117 0 -28 -5 -40 -17 -45 -73 -25
-169 -78 -207 -113 -85 -78 -127 -206 -106 -322 15 -80 41 -130 96 -184 64
-62 149 -100 303 -134 196 -44 264 -80 297 -157 35 -80 3 -151 -86 -195 -181
-90 -408 -24 -460 133 -19 57 -64 93 -108 85 -107 -17 -110 -136 -6 -277 45
-61 138 -124 224 -150 l68 -20 4 -61 c4 -51 9 -65 32 -85 32 -27 90 -31 123
-8 24 17 43 71 43 122 0 29 3 32 53 43 126 29 238 110 288 208 21 40 24 61 24
147 0 91 -3 105 -29 158 -33 65 -102 134 -165 167 -24 12 -118 41 -211 65
-243 63 -289 92 -298 185 -6 62 9 100 59 144 114 104 323 78 406 -50 53 -82
77 -104 118 -104 49 0 95 44 95 91 0 109 -170 277 -307 305 -29 6 -31 9 -36
67 -5 53 -10 66 -36 89 -35 31 -71 35 -112 13z"/>
<path d="M3323 6631 c-64 -40 -66 -133 -5 -181 23 -18 41 -20 226 -20 175 0
204 3 222 18 53 42 59 114 15 164 l-29 33 -199 3 c-183 2 -200 1 -230 -17z"/>
<path d="M6494 6640 c-53 -21 -80 -100 -53 -153 28 -54 39 -57 255 -57 185 0
203 2 226 20 61 48 59 142 -5 180 -29 18 -51 20 -217 19 -102 0 -195 -4 -206
-9z"/>
<path d="M1525 6633 c-61 -16 -133 -111 -155 -202 -5 -26 -28 -311 -49 -636
-44 -654 -44 -683 9 -830 48 -135 618 -1375 656 -1426 19 -26 58 -63 87 -82
53 -35 826 -510 1062 -652 72 -44 150 -94 175 -112 77 -57 216 -202 246 -256
32 -57 31 -45 33 -455 l1 -134 29 -29 c48 -48 126 -35 155 26 12 25 15 79 15
280 0 146 -4 268 -11 295 -41 169 -230 372 -495 531 -380 228 -1103 676 -1125
698 -17 17 -134 264 -328 691 -166 366 -309 683 -317 705 -32 92 -32 145 8
737 38 563 44 628 58 628 14 0 61 -56 70 -85 6 -17 38 -217 71 -445 33 -228
63 -433 66 -454 13 -79 84 -117 153 -81 53 27 54 52 16 313 -79 550 -107 718
-126 761 -44 101 -163 208 -240 215 -24 3 -53 2 -64 -1z"/>
<path d="M8625 6633 c-32 -8 -120 -78 -159 -126 -71 -86 -73 -96 -181 -849
-38 -261 -37 -286 16 -313 53 -28 113 -13 139 35 5 10 30 160 55 332 53 364
83 561 91 601 6 28 58 97 74 97 15 0 21 -58 59 -628 40 -592 40 -645 8 -737
-8 -22 -151 -339 -317 -705 -194 -427 -311 -674 -328 -691 -22 -22 -745 -470
-1125 -698 -136 -82 -234 -159 -328 -259 -90 -96 -142 -180 -165 -266 -20 -77
-19 -537 2 -581 29 -61 107 -74 155 -26 l29 29 0 134 c1 382 3 399 33 454 33
59 151 183 235 247 31 24 116 79 187 122 217 131 955 584 1037 637 48 31 91
68 112 97 38 51 608 1291 656 1426 53 147 53 176 9 830 -21 325 -44 610 -49
636 -15 62 -63 142 -103 173 -34 26 -102 40 -142 29z"/>
<path d="M4044 5611 c-21 -15 -87 -78 -146 -138 -118 -122 -134 -154 -104
-212 24 -46 58 -65 108 -58 38 5 55 19 180 145 l138 138 0 48 c0 98 -93 139
-176 77z"/>
<path d="M6074 5621 c-37 -23 -58 -75 -48 -117 8 -32 232 -267 276 -290 47
-24 86 -18 124 20 36 36 44 77 23 119 -16 31 -239 256 -271 273 -37 19 -67 18
-104 -5z"/>
<path d="M1858 5288 c-46 -12 -117 -72 -134 -115 -21 -48 -18 -137 6 -183 11
-21 96 -142 190 -269 94 -127 193 -270 221 -318 70 -122 101 -153 155 -153 84
0 132 87 84 152 -12 16 -43 67 -70 112 -26 46 -125 188 -220 317 -95 129 -173
241 -174 249 -3 39 138 13 258 -47 33 -17 122 -97 280 -252 371 -365 565 -549
614 -581 71 -47 148 -66 452 -110 305 -44 423 -74 522 -134 154 -92 435 -351
555 -509 119 -159 209 -360 263 -587 27 -118 29 -220 7 -373 -13 -88 -17 -185
-17 -378 l0 -261 29 -29 c47 -46 121 -36 154 21 15 24 17 62 17 269 0 173 5
273 17 358 32 219 20 348 -53 589 -109 363 -309 638 -679 936 -248 199 -340
234 -786 297 -267 38 -311 46 -348 66 -35 18 -166 141 -546 515 -154 151 -307
293 -340 315 -88 58 -261 114 -350 114 -38 -1 -86 -5 -107 -11z"/>
<path d="M8095 5262 c-62 -21 -136 -55 -170 -77 -33 -22 -186 -164 -340 -315
-380 -374 -511 -497 -546 -515 -37 -20 -81 -28 -348 -66 -344 -48 -471 -83
-607 -165 -92 -56 -288 -218 -415 -344 -229 -228 -356 -435 -443 -724 -73
-241 -85 -370 -53 -589 12 -85 17 -185 17 -358 0 -207 2 -245 17 -269 33 -57
107 -67 154 -21 l29 29 0 261 c0 193 -4 290 -17 378 -22 153 -20 255 7 373 54
227 144 428 263 587 120 158 401 417 555 509 99 60 217 90 522 134 304 44 381
63 452 110 49 32 243 216 614 581 158 155 247 235 280 252 120 60 261 86 258
47 -1 -8 -79 -120 -174 -249 -95 -129 -194 -271 -220 -317 -27 -45 -58 -96
-70 -112 -48 -65 0 -152 84 -152 54 0 85 31 155 153 28 48 127 191 221 318 94
127 179 248 190 269 24 46 27 135 6 183 -19 46 -88 103 -141 116 -83 21 -161
13 -280 -27z"/>
<path d="M5044 5196 l-34 -34 0 -201 0 -201 29 -32 c26 -29 35 -33 81 -33 46
0 55 4 81 33 l29 32 0 201 0 201 -34 34 c-28 28 -42 34 -76 34 -34 0 -48 -6
-76 -34z"/>
</g>
</svg>
